# AST/ASF file generated using VICON BodyLanguage
# -----------------------------------------------
:version 1.10
:name VICON
:units
  mass 1.0
  length 0.45
  angle deg
:documentation
   .ast/.asf automatically generated from VICON data using
   VICON BodyBuilder and BodyLanguage model FoxedUp or BRILLIANT.MOD
:root
   order TX TY TZ RX RY RZ
   axis XYZ
   position 0 0 0  
   orientation 0 -0 0 
:bonedata
  begin
     id 1 
     name lhipjoint
     direction 0.500677 -0.737119 0.453848 
     length 2.34727 
     axis 0 -0 0  XYZ
  end
  begin
     id 2 
     name lfemur
     direction 0.34202 -0.939693 0  
     length 7.53653  
     axis 0 -0 20  XYZ
    dof rx ry rz
    limits (-160.0 20.0)
           (-70.0 70.0)
           (-60.0 70.0)
  end
  begin
     id 3 
     name ltibia
     direction 0.34202 -0.939693 0   
     length 6.85572   
     axis 0 -0 20   XYZ
    dof rx
    limits (-10.0 170.0)
  end
  begin
     id 4 
     name lfoot
     direction 0.155313 -0.426718 0.890949   
     length 2.18324   
     axis -90 -1.13533e-015 20   XYZ
    dof rx rz
    limits (-45.0 90.0)
           (-70.0 20.0)
  end
  begin
     id 5 
     name ltoes
     direction 1.53474e-011 -4.21647e-011 1   
     length 1.06748   
     axis -90 -1.13533e-015 20   XYZ
    dof rx
    limits (-90.0 20.0)
  end
  begin
     id 6 
     name rhipjoint
     direction -0.632471 -0.659587 0.406111   
     length 2.62319  
     axis 0 -0 0  XYZ 
  end
  begin
     id 7 
     name rfemur
     direction -0.34202 -0.939693 0   
     length 7.21735   
     axis 0 -0 -20   XYZ
    dof rx ry rz
    limits (-160.0 20.0)
           (-70.0 70.0)
           (-70.0 60.0)
  end
  begin
     id 8 
     name rtibia
     direction -0.34202 -0.939693 0   
     length 7.02558   
     axis 0 -0 -20   XYZ
    dof rx
    limits (-10.0 170.0)
 end
 begin
     id 9 
     name rfoot
     direction -0.16057 -0.441164 0.882945   
     length 2.10014  
     axis -90 1.13533e-015 -20   XYZ
    dof rx rz
    limits (-45.0 90.0)
           (-20.0 70.0)
  end
  begin
     id 10 
     name rtoes
     direction -1.53553e-011 -4.2192e-011 1   
     length 1.02554   
     axis -90 1.13533e-015 -20   XYZ
    dof rx
    limits (-90.0 20.0)
  end
  begin
     id 11 
     name lowerback
     direction 0.0401429 0.998861 -0.0258085   
     length 1.80848   
     axis 0 -0 0   XYZ
    dof rx ry rz
    limits (-20.0 45.0)
           (-30.0 30.0)
           (-30.0 30.0)
  end
  begin
     id 12 
     name upperback
     direction -0.0130978 0.999914 -0.000352645   
     length 1.8116   
     axis 0 -0 0   XYZ
    dof rx ry rz
    limits (-20.0 45.0)
           (-30.0 30.0)
           (-30.0 30.0)
  end
  begin
     id 13 
     name thorax
     direction -0.0300198 0.999453 0.0138573   
     length 1.81778   
     axis 0 -0 0   XYZ
    dof rx ry rz
    limits (-20.0 45.0)
           (-30.0 30.0)
           (-30.0 30.0)
  end
  begin
     id 14 
     name lowerneck
     direction -0.0401726 0.999191 -0.00173647   
     length 2.10594   
     axis 0 -0 0   XYZ
    dof rx ry rz
    limits (-20.0 45.0)
           (-30.0 30.0)
           (-30.0 30.0)
  end
  begin
     id 15 
     name upperneck
     direction 0.0119835 0.998501 0.0534085   
     length 2.07325   
     axis 0 -0 0   XYZ
    dof rx ry rz
    limits (-20.0 45.0)
           (-30.0 30.0)
           (-30.0 30.0)
  end
  begin
     id 16
     name head
     direction 0.00628309 0.999826 0.0175921  
     length 2.15096  
     axis 0 -0 0   XYZ
    dof rx ry rz
    limits (-20.0 45.0)
           (-30.0 30.0)
           (-30.0 30.0)
  end
  begin
     id 17 
     name lclavicle
     direction 0.895501 0.429681 -0.115981  
     length 4.18092  
     axis 0 -0 0   XYZ
    dof ry rz
    limits (-20.0 10.0)
           (0.0 20.0)
  end
  begin
     id 18 
     name lhumerus
     direction 1 -4.48961e-011 -3.38433e-028   
     length 5.77237   
     axis 180 -30 -90   XYZ
    dof rx ry rz
    limits (-60.0 90.0)
           (-90.0 90.0)
           (-90.0 90.0)
  end
  begin
     id 19
     name lradius
     direction 1 -4.4901e-011 1.11983e-026   
     length 2.91878   
     axis 180 -30 -90   XYZ
    dof rx
    limits (-10.0 170.0)
  end
  begin
     id 20
     name lwrist
     direction 1 -4.48934e-011 1.88176e-026   
     length 1.45939   
     axis -1.23311e-014 90 90   XYZ
    dof ry
    limits (-180.0 0.0)
 end
  begin
     id 21 
     name lhand
     direction 1 -4.4895e-011 3.76352e-026   
     length 1.06566   
     axis -2.40147e-014 90 90   XYZ
    dof rx rz
    limits (-90.0 90.0)
           (-45.0 45.0)
  end
  begin
     id 22 
     name lfingers
     direction 1 -4.49005e-011 7.52705e-026   
     length 0.859162   
     axis -4.80295e-014 90 90   XYZ
    dof rx
    limits (0.0 90.0)
  end
  begin
     id 23
     name lthumb
     direction 0.707107 -6.34885e-011 0.707107   
     length 1.23359   
     axis -90 45 -9.86935e-015   XYZ
    dof rx rz
    limits (-45.0 45.0)
           (-45.0 45.0)
  end
  begin
     id 24 
     name rclavicle
     direction -0.91006 0.40451 -0.0903492   
     length 4.23293  
     axis 0 -0 0   XYZ 
    dof ry rz
    limits (-10.0 20.0)
           (-20.0 0.0)
  end
  begin
     id 25 
     name rhumerus
     direction -1 -4.4897e-011 1.7415e-027  
     length 5.49854   
     axis 180 30 90   XYZ
    dof rx ry rz
    limits (-90.0 60.0)
           (-90.0 90.0)
           (-90.0 90.0)
  end
  begin
     id 26 
     name rradius
     direction -1 -4.48963e-011 1.21259e-026   
     length 3.1186   
     axis 180 30 90   XYZ
    dof rx
    limits (-10.0 170.0)
  end
  begin
     id 27 
     name rwrist
     direction -1 -4.48967e-011 1.88176e-026   
     length 1.5593   
     axis -1.23311e-014 -90 -90   XYZ
    dof ry
    limits (-180.0 0.0)
  end
  begin
     id 28
     name rhand
     direction -1 -4.4895e-011 3.76352e-026   
     length 0.71207   
     axis -2.40147e-014 -90 -90   XYZ
    dof rx rz
    limits (-90.0 90.0)
           (-45.0 45.0)
  end
  begin
     id 29
     name rfingers
     direction -1 -4.49005e-011 7.52705e-026   
     length 0.574089   
     axis -4.80295e-014 -90 -90   XYZ
    dof rx
    limits (0.0 90.0)
  end
  begin
     id 30
     name rthumb
     direction -0.707107 -6.34982e-011 0.707107   
     length 0.824281   
     axis -90 -45 9.86935e-015   XYZ
    dof rx rz
    limits (-45.0 45.0)
           (-45.0 45.0)
  end
:hierarchy
  begin
    root lhipjoint rhipjoint lowerback
    lhipjoint lfemur
    lfemur ltibia
    ltibia lfoot
    lfoot ltoes
    rhipjoint rfemur
    rfemur rtibia
    rtibia rfoot
    rfoot rtoes
    lowerback upperback
    upperback thorax
    thorax lowerneck lclavicle rclavicle
    lowerneck upperneck
    upperneck head
    lclavicle lhumerus
    lhumerus lradius
    lradius lwrist
    lwrist lhand lthumb
    lhand lfingers
    rclavicle rhumerus
    rhumerus rradius
    rradius rwrist
    rwrist rhand rthumb
    rhand rfingers
  end

#!OML:ASF C:\ViconDB\ViconDB\414\Spring2016\042216\male.ASF
:FULLY-SPECIFIED
:DEGREES
642
root 26.2987 17.7608 8.59823 714.492 62.9065 1072.88
lowerback -0.193813 -3.9037 2.36184
upperback 0.245274 -5.21264 -0.18977
thorax 0.13201 -2.60247 -1.51637
lowerneck -1.79555 10.3188 -3.67262
upperneck -7.18703 13.5657 -5.59313
head -1.80083 6.9938 -1.28084
rclavicle 1.30645e-013 -7.55382e-015
rhumerus -34.2086 -14.6081 -77.8776
rradius 25.9176
rwrist 38.2647
rhand 12.9229 -19.6477
rfingers 7.12502
rthumb 37.8931 -45.4759
lclavicle 1.30645e-013 -7.55382e-015
lhumerus -24.5619 21.3618 70.4026
lradius 37.4166
lwrist -7.31396
lhand -12.314 16.0146
lfingers 7.12502
lthumb 13.7544 45.54
rfemur -22.2937 12.8568 19.0111
rtibia 30.485
rfoot -16.9683 -8.2466
rtoes -18.4877
lfemur 6.09363 -6.646 -20.059
ltibia 10.8951
lfoot -20.0783 37.5552
ltoes -6.71446
643
root 26.3849 17.7688 8.59772 714.964 63.3257 1073.18
lowerback -0.339109 -3.9769 2.38597
upperback 0.289026 -5.31479 -0.144369
thorax 0.255735 -2.65152 -1.49631
lowerneck -2.02021 10.2042 -3.67129
upperneck -6.91403 13.4502 -5.26083
head -1.69807 6.91955 -1.1539
rclavicle 6.9264e-015 -2.78299e-015
rhumerus -34.4922 -15.5152 -77.3914
rradius 25.7237
rwrist 38.5659
rhand 12.7594 -19.5623
rfingers 7.12502
rthumb 37.7386 -45.4322
lclavicle 6.9264e-015 -2.78299e-015
lhumerus -24.1239 21.1233 71.1141
lradius 37.5818
lwrist -7.31082
lhand -12.1485 15.8288
lfingers 7.12502
lthumb 13.9139 45.3433
rfemur -23.2688 12.6485 18.8797
rtibia 30.4052
rfoot -16.6687 -7.26116
rtoes -18.8232
lfemur 6.75966 -6.31414 -20.3145
ltibia 9.42393
lfoot -19.9131 36.9392
ltoes -6.23438
644
root 26.47 17.7738 8.60478 714.594 63.6421 1072.55
lowerback -0.559499 -4.04415 2.69304
upperback 0.35169 -5.41409 0.044089
thorax 0.428826 -2.6972 -1.49358
lowerneck -1.9038 10.1223 -3.53281
upperneck -6.98182 13.3418 -5.03767
head -1.74698 6.86125 -1.11709
rclavicle -1.01368e-013 -6.75868e-015
rhumerus -34.8746 -16.396 -76.927
rradius 25.5015
rwrist 39.1415
rhand 12.6778 -19.4004
rfingers 7.12502
rthumb 37.6615 -45.291
lclavicle -1.01368e-013 -6.75868e-015
lhumerus -23.7982 20.4625 71.9282
lradius 37.8809
lwrist -6.89574
lhand -12.2884 15.9275
lfingers 7.12502
lthumb 13.7791 45.4512
rfemur -24.1854 13.2362 19.084
rtibia 30.2766
rfoot -16.4017 -7.09297
rtoes -18.4675
lfemur 7.38155 -5.92716 -20.0675
ltibia 8.13176
lfoot -18.9167 36.3286
ltoes -6.96123
645
root 26.5558 17.7763 8.6025 715.373 64.1373 1073.26
lowerback -0.641958 -4.14268 2.52466
upperback 0.398358 -5.54734 0.04671
thorax 0.532864 -2.76263 -1.40759
lowerneck -1.98515 10.0323 -3.44593
upperneck -6.87488 13.2428 -4.734
head -1.71434 6.8006 -1.02866
rclavicle 4.81742e-014 -3.57812e-015
rhumerus -35.1689 -16.673 -76.7599
rradius 25.4145
rwrist 38.572
rhand 12.2917 -19.6586
rfingers 7.12502
rthumb 37.2966 -45.6458
lclavicle 4.81742e-014 -3.57812e-015
lhumerus -23.3967 20.4811 72.582
lradius 37.8002
lwrist -7.85085
lhand -11.7106 15.3069
lfingers 7.12502
lthumb 14.3359 44.792
rfemur -25.0478 13.0486 18.6803
rtibia 30.1296
rfoot -16.0693 -6.38788
rtoes -17.9199
lfemur 8.00115 -5.64384 -20.5404
ltibia 6.89924
lfoot -17.466 35.847
ltoes -8.23504
646
root 26.636 17.7736 8.60788 715.716 64.6414 1073.45
lowerback -0.559635 -4.19931 2.5066
upperback 0.350195 -5.6198 0.187153
thorax 0.450223 -2.8004 -1.24612
lowerneck -1.91884 9.89601 -3.50384
upperneck -6.88924 13.0684 -4.50026
head -1.75168 6.71202 -0.953995
rclavicle 4.12354e-014 -6.95746e-015
rhumerus -35.6576 -17.7696 -75.9733
rradius 25.2029
rwrist 39.925
rhand 13.0346 -19.4771
rfingers 7.12502
rthumb 37.9986 -45.2767
lclavicle 4.12354e-014 -6.95746e-015
lhumerus -23.1595 20.046 73.5371
lradius 38.0216
lwrist -8.09506
lhand -11.3748 15.039
lfingers 7.12502
lthumb 14.6594 44.5008
rfemur -25.8386 12.5485 18.5929
rtibia 29.8725
rfoot -15.6332 -5.57787
rtoes -17.3553
lfemur 8.57202 -5.40867 -20.6618
ltibia 5.66586
lfoot -16.5294 35.1276
ltoes -8.91362
647
root 26.7146 17.7774 8.61438 715.953 65.1239 1073.49
lowerback -0.508356 -4.25658 2.50106
upperback 0.275538 -5.69345 0.307024
thorax 0.354832 -2.839 -1.11349
lowerneck -1.69234 9.81339 -3.41
upperneck -6.90601 12.9609 -4.16348
head -1.81359 6.65156 -0.880914
rclavicle -2.46741e-014 2.98177e-015
rhumerus -36.2183 -18.8001 -75.3406
rradius 24.9129
rwrist 41.1435
rhand 13.1151 -19.1349
rfingers 7.12502
rthumb 38.0746 -44.9138
lclavicle -2.46741e-014 2.98177e-015
lhumerus -22.999 19.5487 74.3822
lradius 38.1998
lwrist -8.10227
lhand -11.2696 14.9224
lfingers 7.12502
lthumb 14.7608 44.3768
rfemur -26.6435 12.9705 18.3558
rtibia 29.6035
rfoot -15.4134 -5.70558
rtoes -16.8424
lfemur 8.89492 -5.16235 -20.6821
ltibia 4.85573
lfoot -15.8848 34.5621
ltoes -9.31564
